<svg xmlns="http://www.w3.org/2000/svg" width="66.398" height="39.554" viewBox="0 0 66.398 39.554">
  <g id="Group_238" data-name="Group 238" transform="translate(-372.5 -287.573)">
    <path id="Path_131" data-name="Path 131" d="M378.725,304.614l-2.711-.762A2.758,2.758,0,0,1,374,301.2h0a2.759,2.759,0,0,1,1.88-2.616l27.386-9.2a5.7,5.7,0,0,1,3.454,0l28.734,9.2a2.8,2.8,0,0,1,1.944,2.663h0a2.8,2.8,0,0,1-1.937,2.661l-29.066,9.38a4.324,4.324,0,0,1-2.785,0l-20.439-7.274" transform="translate(0 0)" fill="none" stroke="#cc0615" stroke-miterlimit="10" stroke-width="3"/>
    <path id="Path_132" data-name="Path 132" d="M401.382,294.94l-20.816,6.8A3.214,3.214,0,0,0,378,305.05v16.684" transform="translate(2.674 3.893)" fill="none" stroke="#cc0615" stroke-miterlimit="10" stroke-width="3"/>
    <path id="Path_133" data-name="Path 133" d="M416.368,301v11.679c0,3-7.68,5.005-16.684,5.005S383,315.68,383,312.679V301" transform="translate(6.015 7.943)" fill="none" stroke="#cc0615" stroke-miterlimit="10" stroke-width="3"/>
  </g>
</svg>
