<?xml version="1.0" encoding="UTF-8"?>
<svg id="Group_4" data-name="Group 4" xmlns="http://www.w3.org/2000/svg" viewBox="0 0 62 54.67">
  <defs>
    <style>
      .cls-1 {
        fill: #be0000;
      }
    </style>
  </defs>
  <path class="cls-1" d="M13.12,20.88h-3V5.38c0-.83.67-1.5,1.5-1.5h7.75c.83,0,1.5.67,1.5,1.5v7.75h-3v-6.25h-4.75v14Z"/>
  <path class="cls-1" d="M52.96,54.67H7.75c-.83,0-1.5-.67-1.5-1.5v-19.38h3v17.88h42.21v-17.88h3v19.38c0,.83-.67,1.5-1.5,1.5Z"/>
  <path class="cls-1" d="M7.75,36.58c-.38,0-.77-.15-1.06-.44l-5.17-5.17c-.28-.28-.44-.66-.44-1.06s.16-.78.44-1.06L29.94.44c.59-.59,1.54-.59,2.12,0l28.42,28.42c.59.59.59,1.54,0,2.12l-5.17,5.17c-.56.56-1.56.56-2.12,0L31,13.95l-22.19,22.19c-.29.29-.68.44-1.06.44ZM4.7,29.92l3.05,3.05L29.94,10.77c.59-.59,1.54-.59,2.12,0l22.19,22.19,3.04-3.05L31,3.62,4.7,29.92Z"/>
  <path class="cls-1" d="M27.12,54.67h-10.33c-.83,0-1.5-.67-1.5-1.5v-19.38c0-.83.67-1.5,1.5-1.5h10.33c.83,0,1.5.67,1.5,1.5v19.38c0,.83-.67,1.5-1.5,1.5ZM18.29,51.67h7.33v-16.38h-7.33v16.38Z"/>
  <path class="cls-1" d="M45.21,45.62h-12.92c-.83,0-1.5-.67-1.5-1.5v-10.33c0-.83.67-1.5,1.5-1.5h12.92c.83,0,1.5.67,1.5,1.5v10.33c0,.83-.67,1.5-1.5,1.5ZM33.79,42.62h9.92v-7.33h-9.92v7.33Z"/>
  <rect class="cls-1" y="51.67" width="62" height="3"/>
</svg>