<?xml version="1.0" encoding="UTF-8"?>
<svg id="Group_4" data-name="Group 4" xmlns="http://www.w3.org/2000/svg" viewBox="0 0 64.89 65">
  <defs>
    <style>
      .cls-1 {
        fill: #be0000;
      }
    </style>
  </defs>
  <path class="cls-1" d="M32.45,65c-18.5-.04-32.45-6-32.45-13.86,0-5.54,6.88-10.22,18.41-12.52l.59,2.94c-9.57,1.91-16,5.75-16,9.58,0,6.36,15.52,10.83,29.45,10.86,13.92-.03,29.44-4.49,29.44-10.86,0-3.82-6.43-7.67-16-9.58l.59-2.94c11.53,2.29,18.41,6.97,18.41,12.52,0,7.86-13.95,13.82-32.44,13.86ZM31.64,27.8h0c-2.24,0-4.34-.88-5.92-2.47-1.58-1.59-2.45-3.69-2.45-5.93,0-4.62,3.77-8.38,8.39-8.38h.11c4.58.04,8.31,3.78,8.32,8.38,0,2.24-.87,4.35-2.45,5.93-1.58,1.59-3.69,2.46-5.93,2.47h-.07ZM31.68,24.8h.09c1.41-.02,2.74-.58,3.75-1.58,1.02-1.02,1.57-2.37,1.57-3.81,0-2.94-2.38-5.34-5.31-5.38h-.2c-2.93.04-5.3,2.44-5.3,5.38,0,1.44.56,2.79,1.57,3.81,1,1,2.33,1.56,3.74,1.58h.09Z"/>
  <path class="cls-1" d="M31.7,55.12l-1.24-1.79c-.51-.74-12.47-18.12-14.89-21.99-2.76-4.41-3.3-7.72-3.29-11.93C12.29,8.71,21,0,31.7,0s19.41,8.71,19.41,19.41c0,4.21-.53,7.52-3.29,11.93-2.42,3.87-14.38,21.25-14.89,21.99l-1.24,1.79ZM31.7,3c-9.05,0-16.41,7.36-16.41,16.41,0,4.33.71,6.94,2.83,10.34,1.93,3.09,10.38,15.42,13.58,20.08,3.2-4.66,11.65-16.99,13.58-20.08,2.12-3.4,2.84-6.01,2.83-10.34,0-9.05-7.36-16.41-16.41-16.41Z"/>
</svg>