<svg id="Group_10" data-name="Group 10" xmlns="http://www.w3.org/2000/svg" xmlns:xlink="http://www.w3.org/1999/xlink" width="60.377" height="59.5" viewBox="0 0 60.377 59.5">
  <defs>
    <clipPath id="clip-path">
      <rect id="Rectangle_75" data-name="Rectangle 75" width="60.377" height="59.5" fill="none" stroke="#cc0615" stroke-width="3"/>
    </clipPath>
  </defs>
  <g id="Group_9" data-name="Group 9" clip-path="url(#clip-path)">
    <path id="Path_39" data-name="Path 39" d="M229.174,148.935a5.3,5.3,0,0,0,5.174-5.543v-1.849a5.186,5.186,0,1,0-10.348,0v1.849A5.3,5.3,0,0,0,229.174,148.935Z" transform="translate(-187.783 -114.011)" fill="none" stroke="#cc0615" stroke-miterlimit="10" stroke-width="3"/>
    <path id="Path_40" data-name="Path 40" d="M125.174,172.935a5.3,5.3,0,0,0,5.174-5.543v-1.849a5.186,5.186,0,1,0-10.348,0v1.849A5.3,5.3,0,0,0,125.174,172.935Z" transform="translate(-100.598 -134.13)" fill="none" stroke="#cc0615" stroke-miterlimit="10" stroke-width="3"/>
    <path id="Path_41" data-name="Path 41" d="M202.109,220.457V207.522s7.629-5.32,9.054-6.467c1.657-1.334,3.193-4.608,1.293-9.054-2.914,1.753-7.761,5.174-11.642,7.761h-9.054c-4.635,0-7.761,1.955-7.761,7.761v12.935" transform="translate(-154.25 -160.957)" fill="none" stroke="#cc0615" stroke-miterlimit="10" stroke-width="3"/>
    <path id="Path_42" data-name="Path 42" d="M107.641,264h-3.88C99.126,264,96,265.955,96,271.761v9.054" transform="translate(-80.478 -221.315)" fill="none" stroke="#cc0615" stroke-miterlimit="10" stroke-width="3"/>
    <path id="Path_43" data-name="Path 43" d="M21.174,212.935a5.3,5.3,0,0,0,5.174-5.543v-1.849A5.3,5.3,0,0,0,21.174,200,5.3,5.3,0,0,0,16,205.543v1.849A5.3,5.3,0,0,0,21.174,212.935Z" transform="translate(-13.413 -167.663)" fill="none" stroke="#cc0615" stroke-miterlimit="10" stroke-width="3"/>
    <path id="Path_44" data-name="Path 44" d="M19.641,304h-3.88C11.126,304,8,305.955,8,311.761v2.587" transform="translate(-6.707 -254.848)" fill="none" stroke="#cc0615" stroke-miterlimit="10" stroke-width="3"/>
    <line id="Line_24" data-name="Line 24" y2="12.904" transform="translate(34.981 46.596)" fill="none" stroke="#cc0615" stroke-miterlimit="10" stroke-width="3"/>
    <line id="Line_25" data-name="Line 25" y1="30.825" transform="translate(57.921)" fill="none" stroke="#cc0615" stroke-miterlimit="10" stroke-width="3"/>
    <path id="Path_45" data-name="Path 45" d="M210.348,40H200l2.587,5.174L200,50.348h12.935V47.761" transform="translate(-167.663 -33.533)" fill="none" stroke="#cc0615" stroke-miterlimit="10" stroke-width="3"/>
    <rect id="Rectangle_74" data-name="Rectangle 74" width="12.904" height="10.753" transform="translate(45.017 3.584)" fill="none" stroke="#cc0615" stroke-miterlimit="10" stroke-width="3"/>
  </g>
</svg>
