<?xml version="1.0" encoding="UTF-8"?>
<svg id="Layer_1" xmlns="http://www.w3.org/2000/svg" version="1.1" viewBox="0 0 51.8 50">
  <!-- Generator: Adobe Illustrator 29.8.2, SVG Export Plug-In . SVG Version: 2.1.1 Build 3)  -->
  <defs>
    <style>
      .st0 {
        stroke-linecap: round;
      }

      .st0, .st1, .st2 {
        fill: none;
        stroke: #be0000;
        stroke-miterlimit: 10;
        stroke-width: 2px;
      }

      .st1 {
        stroke-linecap: square;
      }
    </style>
  </defs>
  <path class="st2" d="M11.3,36.5H2.9v12.5h8.4"/>
  <path class="st2" d="M5,36.5v-4.7l6.3-3.9"/>
  <path class="st2" d="M7.1,38.9v7.8"/>
  <path class="st2" d="M13.5,33.4h2.1"/>
  <path class="st2" d="M13.5,30.3h2.1"/>
  <path class="st2" d="M13.5,27.1h2.1"/>
  <path class="st2" d="M13.5,36.5h2.1"/>
  <path class="st2" d="M13.5,39.6h2.1"/>
  <path class="st0" d="M34.1,19.4v-5.7"/>
  <path class="st2" d="M30.3,23.7h7.6v4.3h-7.6v-4.3Z"/>
  <path class="st2" d="M32.5,19.4h3v4.3h-3v-4.3Z"/>
  <path class="st2" d="M28.8,28h10.6v21h-10.6v-21Z"/>
  <path class="st2" d="M31.8,31.8h4.5"/>
  <path class="st2" d="M31.8,35.2h4.5"/>
  <path class="st2" d="M31.8,38.7h4.5"/>
  <path class="st2" d="M31.8,42.1h4.5"/>
  <path class="st2" d="M31.8,45.6h4.5"/>
  <path class="st0" d="M21.7,28.4v-10.2l-1-.8-9.4,7.8v23.8h10.2"/>
  <path class="st2" d="M45.7,39.6h-6.3"/>
  <path class="st2" d="M45.7,42.8h-6.3"/>
  <path class="st2" d="M45.7,45.9h-6.3"/>
  <g>
    <path class="st2" d="M39.5,36.5h9.4v12.5h-9.4v-12.5Z"/>
    <path class="st2" d="M29.6,30.6h-5.2v2.9"/>
    <path class="st2" d="M29.6,49h-7.9v-15.5h7.9"/>
    <path class="st0" d="M20,33.5h1.8"/>
    <path class="st1" d="M25.1,17.5l10.1-13.1,3.9,2.1,5.3,7h3.6l2.4,3"/>
    <path class="st1" d="M1.4,14.3L7.5,5.3h2.4l2.4-3,2.4-1,6,7h3.6l3.6,4.7"/>
    <path class="st2" d="M14.3,10.5l-1.4.9-.8,1.8-4.2,2.1-2.9,5"/>
    <path class="st2" d="M41.1,17.4l1.1,2,3.3.8,2.9,4.8"/>
  </g>
</svg>